<svg version="1.1" xmlns="http://www.w3.org/2000/svg" viewBox="0 0 1237.373205354468 893.2871718262026" width="1237.373205354468" height="893.2871718262026">
  <!-- svg-source:excalidraw -->
  
  <defs>
    <style class="style-fonts">
      @font-face {
        font-family: "Virgil";
        src: url("https://excalidraw.com/Virgil.woff2");
      }
      @font-face {
        font-family: "Cascadia";
        src: url("https://excalidraw.com/Cascadia.woff2");
      }
    </style>
  </defs>
  <rect x="0" y="0" width="1237.373205354468" height="893.2871718262026" fill="#ffffff"/><g stroke-linecap="round" transform="translate(116.67287056429257 474.46270765549724) rotate(0 132.01336462816892 78.50366107211264)"><path d="M32 0 M32 0 C91.43 0.77, 148.8 2.44, 232.03 0 M32 0 C92.57 0.93, 150.77 1.23, 232.03 0 M232.03 0 C251.76 0.33, 265.33 9.42, 264.03 32 M232.03 0 C255.65 2.28, 262.37 9.87, 264.03 32 M264.03 32 C265.7 57.2, 265.15 85.87, 264.03 125.01 M264.03 32 C264.18 63.74, 264.17 95.54, 264.03 125.01 M264.03 125.01 C263.99 144.65, 253.64 156.41, 232.03 157.01 M264.03 125.01 C265.31 147.24, 255.55 156.25, 232.03 157.01 M232.03 157.01 C154.46 157.32, 77.08 156.17, 32 157.01 M232.03 157.01 C178.96 158.53, 126.25 158.86, 32 157.01 M32 157.01 C10.31 156.84, -1.26 146.55, 0 125.01 M32 157.01 C12.61 157.08, 1.92 148.08, 0 125.01 M0 125.01 C-1.83 93.53, -1.35 64.61, 0 32 M0 125.01 C-0.95 95.3, -0.04 67.53, 0 32 M0 32 C0.04 10.03, 9.32 1.72, 32 0 M0 32 C1.38 11.04, 9.45 0.15, 32 0" stroke="#000000" stroke-width="1" fill="none"/></g><g transform="translate(154.49531462896869 500.54887478193876) rotate(0 95.55000305175781 43.9612454505016)"><text x="0" y="0" font-family="Helvetica, Segoe UI Emoji" font-size="38.227169956957916px" fill="#000000" text-anchor="start" style="white-space: pre;" direction="ltr" dominant-baseline="text-before-edge">MLX90640</text><text x="0" y="43.9612454505016" font-family="Helvetica, Segoe UI Emoji" font-size="38.227169956957916px" fill="#000000" text-anchor="start" style="white-space: pre;" direction="ltr" dominant-baseline="text-before-edge">红外热像仪</text></g><g stroke-linecap="round"><g transform="translate(384.504840276293 556.9663056010937) rotate(0 70.52178852394385 1.0849505926760799)"><path d="M0.01 0.22 C23.5 0.51, 117.29 2.13, 140.94 2.42 M-1.44 -0.71 C21.88 -0.87, 116.1 -0.22, 139.93 0.43" stroke="#000000" stroke-width="2" fill="none"/></g><g transform="translate(384.504840276293 556.9663056010937) rotate(0 70.52178852394385 1.0849505926760799)"><path d="M111.96 10.08 C120.54 8.72, 128.39 3.85, 139.9 0.1 M112.37 10.28 C119.45 6.92, 127.74 5.7, 140.26 -0.48" stroke="#000000" stroke-width="2" fill="none"/></g><g transform="translate(384.504840276293 556.9663056010937) rotate(0 70.52178852394385 1.0849505926760799)"><path d="M112.28 -10.43 C120.89 -5.58, 128.64 -4.24, 139.9 0.1 M112.68 -10.24 C119.51 -8.13, 127.72 -3.87, 140.26 -0.48" stroke="#000000" stroke-width="2" fill="none"/></g></g><mask/><g stroke-linecap="round" transform="translate(522.2935655461526 474.51006055771336) rotate(0 167.0823912721131 78.11644267267627)"><path d="M32 0 M32 0 C107.59 -1, 185.37 -1.25, 302.16 0 M32 0 C99.42 -1.74, 165.37 -2.29, 302.16 0 M302.16 0 C324.97 1.36, 332.49 11.84, 334.16 32 M302.16 0 C325.28 2.19, 334.71 9.69, 334.16 32 M334.16 32 C335.95 58.59, 336.48 81.94, 334.16 124.23 M334.16 32 C333.93 60.79, 333.85 90.13, 334.16 124.23 M334.16 124.23 C333.71 143.6, 324.81 155.54, 302.16 156.23 M334.16 124.23 C333.32 144.54, 324.48 154.78, 302.16 156.23 M302.16 156.23 C200.08 157.84, 100.22 156.38, 32 156.23 M302.16 156.23 C241.98 156.41, 183.87 157.02, 32 156.23 M32 156.23 C10.03 154.58, 0.1 145.44, 0 124.23 M32 156.23 C10.07 155.67, -0.75 146.65, 0 124.23 M0 124.23 C-0.98 93.32, 1.14 64.24, 0 32 M0 124.23 C0.69 100.01, -0.4 76.67, 0 32 M0 32 C1.1 9.87, 11.51 1.34, 32 0 M0 32 C-0.32 11.49, 11.02 -2.2, 32 0" stroke="#000000" stroke-width="2" fill="none"/></g><g transform="translate(579.7959469579838 505.973627745319) rotate(0 113.11402130126953 22.9492533817984)"><text x="0" y="0" font-family="Helvetica, Segoe UI Emoji" font-size="39.911745011823314px" fill="#000000" text-anchor="start" style="white-space: pre;" direction="ltr" dominant-baseline="text-before-edge">STM32C8T6</text></g><g transform="translate(644.8929825185472 560.221157379122) rotate(0 41.55012512207031 20.982468179988757)"><text x="0" y="0" font-family="Helvetica, Segoe UI Emoji" font-size="36.4912490086761px" fill="#000000" text-anchor="start" style="white-space: pre;" direction="ltr" dominant-baseline="text-before-edge">MCU</text></g><g stroke-linecap="round" transform="translate(10 794.3212232267657) rotate(0 88.9659485994369 44.48297429971842)"><path d="M22.24 0 M22.24 0 C68.68 -1, 109.65 -1.9, 155.69 0 M22.24 0 C62.5 0.6, 104.51 0.73, 155.69 0 M155.69 0 C170.68 0.92, 178.48 8.86, 177.93 22.24 M155.69 0 C170.97 0.05, 176.9 7.8, 177.93 22.24 M177.93 22.24 C179.02 35.5, 177.04 49.53, 177.93 66.72 M177.93 22.24 C179.24 37.02, 178.46 52.39, 177.93 66.72 M177.93 66.72 C179.79 81.26, 168.82 88.4, 155.69 88.97 M177.93 66.72 C179.23 81.28, 170.87 89.61, 155.69 88.97 M155.69 88.97 C110.01 87.84, 61.75 87.91, 22.24 88.97 M155.69 88.97 C116.3 89.79, 75.94 90.33, 22.24 88.97 M22.24 88.97 C8.58 87.58, -1.99 82.93, 0 66.72 M22.24 88.97 C6.97 88.32, 0.9 81.1, 0 66.72 M0 66.72 C0.58 52.11, 0.09 37.68, 0 22.24 M0 66.72 C-0.76 50, 0.14 32.38, 0 22.24 M0 22.24 C0.1 7.88, 8.01 1.74, 22.24 0 M0 22.24 C-1.04 8.27, 6.89 -0.09, 22.24 0" stroke="#000000" stroke-width="2" fill="none"/></g><g transform="translate(36.03881422422535 817.4510179275298) rotate(0 72.11344909667969 22.71906509581514)"><text x="0" y="0" font-family="Helvetica, Segoe UI Emoji" font-size="39.51141755793937px" fill="#000000" text-anchor="start" style="white-space: pre;" direction="ltr" dominant-baseline="text-before-edge">220VAC</text></g><g stroke-linecap="round" transform="translate(305.10656120788803 805.1707291535264) rotate(0 73.77664030197207 31.463567187605747)"><path d="M15.73 0 M15.73 0 C57.37 0.12, 101.08 -0.54, 131.82 0 M15.73 0 C59.54 0.47, 102.2 -1.24, 131.82 0 M131.82 0 C141.12 -0.88, 146.68 5.69, 147.55 15.73 M131.82 0 C144.13 -0.27, 145.72 5.62, 147.55 15.73 M147.55 15.73 C149.51 27.05, 146.98 35.26, 147.55 47.2 M147.55 15.73 C147.82 27.34, 146.88 39.79, 147.55 47.2 M147.55 47.2 C145.63 57.76, 141.38 61.67, 131.82 62.93 M147.55 47.2 C146.32 56.51, 142.04 61.68, 131.82 62.93 M131.82 62.93 C90.6 63.92, 49.21 60.53, 15.73 62.93 M131.82 62.93 C99.13 61.2, 63.94 62.88, 15.73 62.93 M15.73 62.93 C5.42 62.18, -0.69 56.63, 0 47.2 M15.73 62.93 C3.59 63.89, 0.32 58.37, 0 47.2 M0 47.2 C-1.31 37.89, 1.1 24.98, 0 15.73 M0 47.2 C0.79 37.9, 1.21 28.2, 0 15.73 M0 15.73 C1.01 7.17, 4.24 -0.39, 15.73 0 M0 15.73 C-1.9 6.05, 7.49 -0.99, 15.73 0" stroke="#000000" stroke-width="2" fill="none"/></g><g transform="translate(324.63567187605724 814.9352844876108) rotate(0 50.53539276123047 21.79032838900868)"><text x="0" y="0" font-family="Helvetica, Segoe UI Emoji" font-size="37.89622328523248px" fill="#000000" text-anchor="start" style="white-space: pre;" direction="ltr" dominant-baseline="text-before-edge">5VDC</text></g><g stroke-linecap="round"><g transform="translate(187.93189719887368 838.8041975264841) rotate(0 58.58733200450723 0.5424752963380115)"><path d="M-0.43 0.59 C19.14 0.64, 97.57 1.41, 117.21 1.32 M1.54 -0.15 C20.98 0.04, 97.08 -0.83, 116.28 -0.68" stroke="#000000" stroke-width="2" fill="none"/></g><g transform="translate(187.93189719887368 838.8041975264841) rotate(0 58.58733200450723 0.5424752963380115)"><path d="M89.1 9.71 C96.31 7.22, 102.03 2.58, 115.4 -2.67 M88.03 9.97 C94.12 7.71, 100.3 4.72, 117 -0.18" stroke="#000000" stroke-width="2" fill="none"/></g><g transform="translate(187.93189719887368 838.8041975264841) rotate(0 58.58733200450723 0.5424752963380115)"><path d="M89.04 -10.81 C96.44 -7.54, 102.18 -6.43, 115.4 -2.67 M87.97 -10.55 C94.21 -8.34, 100.41 -6.87, 117 -0.18" stroke="#000000" stroke-width="2" fill="none"/></g></g><mask/><g transform="translate(692.1033734768965 690.6934602988043) rotate(0 38.86000061035156 22.34950592676057)"><text x="0" y="0" font-family="Helvetica, Segoe UI Emoji" font-size="38.86870595958361px" fill="#000000" text-anchor="start" style="white-space: pre;" direction="ltr" dominant-baseline="text-before-edge">供电</text></g><g transform="translate(201.45356469310627 792.3182804045316) rotate(0 34.18998718261719 19.66041126282809)"><text x="0" y="0" font-family="Helvetica, Segoe UI Emoji" font-size="34.192019587527106px" fill="#000000" text-anchor="start" style="white-space: pre;" direction="ltr" dominant-baseline="text-before-edge">整流</text></g><g transform="translate(404.4951043728617 517.2955744289814) rotate(0 48.79998779296875 14.032541426394914)"><text x="0" y="0" font-family="Helvetica, Segoe UI Emoji" font-size="24.40441987199115px" fill="#000000" text-anchor="start" style="white-space: pre;" direction="ltr" dominant-baseline="text-before-edge">温度矩阵</text></g><g stroke-linecap="round" transform="translate(453.4506112230695 249.4256897096464) rotate(0 125.34201685606533 37.55657770962702)"><path d="M18.78 0 M18.78 0 C98.75 -0.29, 176.89 -1.5, 231.91 0 M18.78 0 C96.05 1.27, 173.27 0.89, 231.91 0 M231.91 0 C245.84 -1.19, 249.36 7.51, 250.68 18.78 M231.91 0 C244.53 1.14, 248.64 7.09, 250.68 18.78 M250.68 18.78 C249.66 32.86, 249.78 43.37, 250.68 56.33 M250.68 18.78 C250.18 32.26, 250.35 45.84, 250.68 56.33 M250.68 56.33 C250.69 70.41, 246.18 74.13, 231.91 75.11 M250.68 56.33 C252.66 67.23, 242.94 73.41, 231.91 75.11 M231.91 75.11 C169.89 76.44, 105.05 76.64, 18.78 75.11 M231.91 75.11 C161.77 75.05, 90.32 75.35, 18.78 75.11 M18.78 75.11 C8.11 73.16, -0.26 68.41, 0 56.33 M18.78 75.11 C6.16 73.47, -0.34 70.7, 0 56.33 M0 56.33 C0.36 43.86, -0.04 36.6, 0 18.78 M0 56.33 C0.94 41.06, -0.62 27.04, 0 18.78 M0 18.78 C0.17 6.36, 5.18 -0.89, 18.78 0 M0 18.78 C-0.62 5.36, 6.21 2.13, 18.78 0" stroke="#000000" stroke-width="2" fill="none"/></g><g stroke-linecap="round"><g transform="translate(578.3894623501369 469.3686224801461) rotate(0 0.14761259494656542 -70.15964956406268)"><path d="M-0.18 0.96 C-0.15 -22.36, 0.18 -117.26, 0.14 -140.79 M-1.73 0.43 C-1.87 -22.66, -1.52 -116.29, -0.9 -139.5" stroke="#000000" stroke-width="2" fill="none"/></g><g transform="translate(578.3894623501369 469.3686224801461) rotate(0 0.14761259494656542 -70.15964956406268)"><path d="M10.59 -111.44 C5.49 -120.84, 3.56 -129.64, -1.08 -137.7 M9.76 -111.63 C4.43 -122.05, 1.4 -133.51, -1.43 -139.94" stroke="#000000" stroke-width="2" fill="none"/></g><g transform="translate(578.3894623501369 469.3686224801461) rotate(0 0.14761259494656542 -70.15964956406268)"><path d="M-9.92 -111.71 C-8.97 -121, -4.83 -129.72, -1.08 -137.7 M-10.76 -111.91 C-8 -122.12, -2.93 -133.48, -1.43 -139.94" stroke="#000000" stroke-width="2" fill="none"/></g></g><mask/><g transform="translate(481.9616212322304 271.1808606079935) rotate(0 94.45535278320312 18.105051953151445)"><text x="0" y="0" font-family="Helvetica, Segoe UI Emoji" font-size="31.48704687504601px" fill="#000000" text-anchor="start" style="white-space: pre;" direction="ltr" dominant-baseline="text-before-edge">GA6拨号模块</text></g><g stroke-linecap="round" transform="translate(526.9596165948301 795.944981256328) rotate(0 150.7920292145091 43.083436918431175)"><path d="M21.54 0 M21.54 0 C74.82 0.49, 126.25 1.23, 280.04 0 M21.54 0 C103.73 0.12, 186.48 -0.2, 280.04 0 M280.04 0 C293.71 1.55, 300.72 8.31, 301.58 21.54 M280.04 0 C292.17 0.36, 299.47 7.5, 301.58 21.54 M301.58 21.54 C300.83 36.85, 302.58 51.8, 301.58 64.63 M301.58 21.54 C301.96 32.57, 301.71 44.75, 301.58 64.63 M301.58 64.63 C301.6 78.72, 293.72 87.27, 280.04 86.17 M301.58 64.63 C301.91 77.13, 293.52 86.53, 280.04 86.17 M280.04 86.17 C193.27 84.12, 104.87 84.92, 21.54 86.17 M280.04 86.17 C210.45 86.02, 139.02 87.13, 21.54 86.17 M21.54 86.17 C7.5 84.76, 0.24 80.26, 0 64.63 M21.54 86.17 C5.34 84.75, 1.87 79.07, 0 64.63 M0 64.63 C0.99 49.84, 1.26 36.57, 0 21.54 M0 64.63 C-0.81 48.11, -0.56 32.36, 0 21.54 M0 21.54 C1.92 8.61, 7.87 1.39, 21.54 0 M0 21.54 C1.95 6.3, 7.89 -1.26, 21.54 0" stroke="#000000" stroke-width="2" fill="none"/></g><g transform="translate(572.5049641943144 819.641551440252) rotate(0 100.43031311035156 20.577955696990315)"><text x="0" y="0" font-family="Helvetica, Segoe UI Emoji" font-size="35.78774903824402px" fill="#000000" text-anchor="start" style="white-space: pre;" direction="ltr" dominant-baseline="text-before-edge">LM2596稳压</text></g><g stroke-linecap="round"><g transform="translate(675.9052127985492 792.2521152347482) rotate(0 0.6154776702633171 -78.78114179370272)"><path d="M-0.36 0.79 C-0.05 -25.6, 0.38 -132.41, 0.79 -158.75 M1.65 0.17 C1.87 -26.1, -0.41 -131.24, -0.4 -157.83" stroke="#000000" stroke-width="2" fill="none"/></g><g transform="translate(675.9052127985492 792.2521152347482) rotate(0 0.6154776702633171 -78.78114179370272)"><path d="M11.51 -130.51 C6.09 -134.24, 6.45 -141.18, -0.98 -158.4 M10.35 -130.15 C7.34 -139.35, 3.14 -149.96, 0.11 -157.22" stroke="#000000" stroke-width="2" fill="none"/></g><g transform="translate(675.9052127985492 792.2521152347482) rotate(0 0.6154776702633171 -78.78114179370272)"><path d="M-9.01 -130.27 C-10.16 -133.99, -5.53 -140.98, -0.98 -158.4 M-10.17 -129.91 C-5.86 -139.12, -2.75 -149.82, 0.11 -157.22" stroke="#000000" stroke-width="2" fill="none"/></g></g><mask/><g stroke-linecap="round"><g transform="translate(458.02611752534017 836.566507493706) rotate(0 34.466749534744906 0.6154776702632603)"><path d="M-0.51 0.69 C10.7 0.77, 56.61 0.46, 68.18 0.56 M1.43 0 C12.94 0.22, 59.37 1.3, 70.49 1.75" stroke="#000000" stroke-width="2" fill="none"/></g><g transform="translate(458.02611752534017 836.566507493706) rotate(0 34.466749534744906 0.6154776702632603)"><path d="M43.15 9.89 C51.64 7.71, 63.65 2.79, 69.49 2.95 M42.82 10.91 C49.15 7.72, 56.05 6.83, 71.07 0.84" stroke="#000000" stroke-width="2" fill="none"/></g><g transform="translate(458.02611752534017 836.566507493706) rotate(0 34.466749534744906 0.6154776702632603)"><path d="M43.77 -10.62 C52.04 -5.06, 63.81 -2.24, 69.49 2.95 M43.44 -9.61 C49.81 -7.64, 56.56 -3.38, 71.07 0.84" stroke="#000000" stroke-width="2" fill="none"/></g></g><mask/><g stroke-linecap="round"><g transform="translate(860.5192036878248 549.5167921688412) rotate(0 53.99852548926776 0.13941401098031747)"><path d="M0.57 0.18 C18.63 0.12, 90.35 -0.64, 108.18 -0.66 M-0.59 -0.77 C17.34 -0.69, 89.48 0.04, 107.32 0.39" stroke="#000000" stroke-width="2" fill="none"/></g><g transform="translate(860.5192036878248 549.5167921688412) rotate(0 53.99852548926776 0.13941401098031747)"><path d="M79.29 10.55 C85.48 6.51, 94.77 4.97, 106.93 0.84 M79.59 9.56 C85.24 8.29, 91.67 5.03, 107.29 -0.03" stroke="#000000" stroke-width="2" fill="none"/></g><g transform="translate(860.5192036878248 549.5167921688412) rotate(0 53.99852548926776 0.13941401098031747)"><path d="M79.58 -9.97 C85.64 -8.19, 94.84 -3.92, 106.93 0.84 M79.87 -10.96 C85.4 -7.78, 91.77 -6.6, 107.29 -0.03" stroke="#000000" stroke-width="2" fill="none"/></g></g><mask/><g stroke-linecap="round" transform="translate(971.3344945249344 493.12996748678313) rotate(0 128.01935541476675 53.54655731290734)"><path d="M26.77 0 M26.77 0 C85.96 1.9, 143.64 1.42, 229.27 0 M26.77 0 C80.49 0.13, 135.28 -0.88, 229.27 0 M229.27 0 C246.8 0.29, 255.84 9.61, 256.04 26.77 M229.27 0 C248.38 1.92, 256.57 8, 256.04 26.77 M256.04 26.77 C255.93 41.16, 256.2 57.95, 256.04 80.32 M256.04 26.77 C255.19 45.98, 255.88 65.69, 256.04 80.32 M256.04 80.32 C257.3 98.91, 247.08 108.68, 229.27 107.09 M256.04 80.32 C256.64 98.65, 245.6 104.92, 229.27 107.09 M229.27 107.09 C163.02 106.22, 97.92 104.98, 26.77 107.09 M229.27 107.09 C158.14 106.1, 86.15 106.03, 26.77 107.09 M26.77 107.09 C8.53 108.63, -0.42 100.05, 0 80.32 M26.77 107.09 C7.73 106.31, 0.73 98.59, 0 80.32 M0 80.32 C-1.58 63.2, 0.01 42.62, 0 26.77 M0 80.32 C-0.91 62.45, 0.54 43.8, 0 26.77 M0 26.77 C-0.56 9.58, 9 -1.64, 26.77 0 M0 26.77 C-0.04 8.43, 8.32 -1.03, 26.77 0" stroke="#000000" stroke-width="2" fill="none"/></g><g transform="translate(999.6464673570463 527.5967170215281) rotate(0 97.76907348632812 23.809553405266)"><text x="0" y="0" font-family="Helvetica, Segoe UI Emoji" font-size="41.40791896568001px" fill="#000000" text-anchor="start" style="white-space: pre;" direction="ltr" dominant-baseline="text-before-edge">OLED显示</text></g><g stroke-linecap="round" transform="translate(839.1112506654084 249.8237640637443) rotate(0 93.89638287035984 39.19153371980238)"><path d="M19.6 0 M19.6 0 C53.05 0.29, 86.35 -0.13, 168.2 0 M19.6 0 C59.39 -1.35, 99.72 -1.26, 168.2 0 M168.2 0 C179.77 0.43, 189.78 7.66, 187.79 19.6 M168.2 0 C181.15 0.62, 186.56 4.8, 187.79 19.6 M187.79 19.6 C186.76 27.16, 188.89 35.21, 187.79 58.79 M187.79 19.6 C187.53 30.66, 187.4 41.07, 187.79 58.79 M187.79 58.79 C187.01 71.34, 180 76.9, 168.2 78.38 M187.79 58.79 C185.74 71.88, 181.52 79.21, 168.2 78.38 M168.2 78.38 C131.01 78.26, 98.21 78.63, 19.6 78.38 M168.2 78.38 C117.54 80.51, 68.24 80.64, 19.6 78.38 M19.6 78.38 C4.84 78.39, -1.75 72.97, 0 58.79 M19.6 78.38 C4.49 77.84, -1.11 71.25, 0 58.79 M0 58.79 C0.96 42.01, -2.04 29.99, 0 19.6 M0 58.79 C-0.05 44.34, 0.31 30.02, 0 19.6 M0 19.6 C1.97 8.5, 6.52 0.18, 19.6 0 M0 19.6 C0.12 7.8, 8.43 1.41, 19.6 0" stroke="#000000" stroke-width="2" fill="none"/></g><g transform="translate(892.9996095301368 261.3362770939363) rotate(0 41.220001220703125 23.706529773146798)"><text x="0" y="0" font-family="Helvetica, Segoe UI Emoji" font-size="41.22874743155967px" fill="#000000" text-anchor="start" style="white-space: pre;" direction="ltr" dominant-baseline="text-before-edge">按键</text></g><g stroke-linecap="round"><g transform="translate(935.3651294690223 333.10577321832443) rotate(0 -39.96203654351478 73.48412572462945)"><path d="M0.11 -0.64 C-1.8 16.68, 1.55 80.17, -11.87 104.59 C-25.3 129.02, -69.08 138.79, -80.45 145.89 M-1.29 1.64 C-3.37 19.11, 0.26 82.01, -13.1 106.18 C-26.47 130.34, -70.36 139.6, -81.49 146.65" stroke="#000000" stroke-width="2" fill="none"/></g><g transform="translate(935.3651294690223 333.10577321832443) rotate(0 -39.96203654351478 73.48412572462945)"><path d="M-60.62 125.29 C-65.12 130.76, -72.87 136.83, -81.03 148.46 M-60.2 125.89 C-66.15 133.25, -74.04 139.37, -82.47 145.71" stroke="#000000" stroke-width="2" fill="none"/></g><g transform="translate(935.3651294690223 333.10577321832443) rotate(0 -39.96203654351478 73.48412572462945)"><path d="M-52.6 144.18 C-59.33 144.65, -69.21 145.7, -81.03 148.46 M-52.17 144.78 C-60.47 146.19, -70.88 146.39, -82.47 145.71" stroke="#000000" stroke-width="2" fill="none"/></g></g><mask/><g stroke-linecap="round"><g transform="translate(578.5836363897179 247.44347384062746) rotate(0 1.1864685104137038 -76.65259274415507)"><path d="M-0.58 1.16 C-0.07 -24.32, 2.33 -127.54, 2.99 -153.11 M1.32 0.73 C1.73 -25.13, 2.06 -129.34, 2.37 -155.12" stroke="#000000" stroke-width="2" fill="none"/></g><g transform="translate(578.5836363897179 247.44347384062746) rotate(0 1.1864685104137038 -76.65259274415507)"><path d="M14.36 -125.83 C9.85 -133.55, 8.36 -142.36, 0.63 -156.1 M11.56 -127.61 C9.24 -136.81, 5.98 -146.47, 1.75 -155.6" stroke="#000000" stroke-width="2" fill="none"/></g><g transform="translate(578.5836363897179 247.44347384062746) rotate(0 1.1864685104137038 -76.65259274415507)"><path d="M-6.16 -125.98 C-4.63 -133.55, -0.07 -142.32, 0.63 -156.1 M-8.96 -127.75 C-4.38 -136.86, -0.73 -146.47, 1.75 -155.6" stroke="#000000" stroke-width="2" fill="none"/></g></g><mask/><g stroke-linecap="round" transform="translate(465.15869975562725 12.497287539127228) rotate(0 123.29003316021159 38.37504343397313)"><path d="M19.19 0 M19.19 0 C86.22 -0.95, 154.99 0.5, 227.39 0 M19.19 0 C71.01 -0.45, 121.39 0.74, 227.39 0 M227.39 0 C240.34 -0.79, 248.19 4.7, 246.58 19.19 M227.39 0 C240.32 1.42, 246.96 6.61, 246.58 19.19 M246.58 19.19 C246.26 30.85, 247.94 44.09, 246.58 57.56 M246.58 19.19 C247.77 30.64, 246.09 42.56, 246.58 57.56 M246.58 57.56 C247.27 71.25, 241.87 78.6, 227.39 76.75 M246.58 57.56 C248.5 68.95, 240.34 77.69, 227.39 76.75 M227.39 76.75 C178.82 76.63, 129.13 76.59, 19.19 76.75 M227.39 76.75 C159.37 79.15, 90.33 78.65, 19.19 76.75 M19.19 76.75 C7.71 78.46, -1.71 72.18, 0 57.56 M19.19 76.75 C7.6 76.5, 0.28 68.44, 0 57.56 M0 57.56 C-0.78 45.87, -1.21 35.79, 0 19.19 M0 57.56 C1.13 45.83, 1.31 36.13, 0 19.19 M0 19.19 C1.99 6.8, 6.48 -0.2, 19.19 0 M0 19.19 C1.24 4.32, 7.62 -1.55, 19.19 0" stroke="#000000" stroke-width="2" fill="none"/></g><g transform="translate(507.6161946187466 28.827093255711475) rotate(0 76.89999389648438 22.114373715779777)"><text x="0" y="0" font-family="Helvetica, Segoe UI Emoji" font-size="38.459780375269176px" fill="#000000" text-anchor="start" style="white-space: pre;" direction="ltr" dominant-baseline="text-before-edge">电话报警</text></g><g transform="translate(587.2278877652537 395.8321360316308) rotate(0 42.873504638671875 18.23409971901171)"><text x="0" y="0" font-family="Helvetica, Segoe UI Emoji" font-size="31.711477772194293px" fill="#000000" text-anchor="start" style="white-space: pre;" direction="ltr" dominant-baseline="text-before-edge">UART</text></g><g stroke-linecap="round" transform="translate(821.6469971019363 10) rotate(0 122.29098458582882 36.687295375748704)"><path d="M18.34 0 M18.34 0 C76.9 -0.13, 135.7 1.87, 226.24 0 M18.34 0 C62.66 0.84, 106.05 1.78, 226.24 0 M226.24 0 C237.52 1.07, 245.24 7.59, 244.58 18.34 M226.24 0 C240.09 -0.36, 242.63 5.64, 244.58 18.34 M244.58 18.34 C245.1 30.17, 243.4 42.08, 244.58 55.03 M244.58 18.34 C244.6 30.48, 244.55 43.34, 244.58 55.03 M244.58 55.03 C243.91 67.83, 238.09 71.8, 226.24 73.37 M244.58 55.03 C246.29 65.93, 236.54 75.66, 226.24 73.37 M226.24 73.37 C181.41 72.77, 139.37 74.71, 18.34 73.37 M226.24 73.37 C153 73.6, 80.6 72.88, 18.34 73.37 M18.34 73.37 C4.15 75.28, -0.25 69.1, 0 55.03 M18.34 73.37 C8.03 73.11, -1.94 65.49, 0 55.03 M0 55.03 C1.7 47.49, 0.05 37.95, 0 18.34 M0 55.03 C-0.48 47.05, -0.5 38.14, 0 18.34 M0 18.34 C-0.93 6.96, 5.36 -1.87, 18.34 0 M0 18.34 C0.04 4.92, 5.88 1.17, 18.34 0" stroke="#000000" stroke-width="2" fill="none"/></g><g transform="translate(860.7801121694016 25.89782799615773) rotate(0 87.1999740600586 20.060368921008035)"><text x="0" y="0" font-family="Helvetica, Segoe UI Emoji" font-size="34.88759812349223px" fill="#000000" text-anchor="start" style="white-space: pre;" direction="ltr" dominant-baseline="text-before-edge">蜂鸣器报警</text></g><g stroke-linecap="round"><g transform="translate(586.8483066971448 243.57578055893322) rotate(0 180.99065718702678 -80.1005949037179)"><path d="M0.35 -0.79 C48.69 -11.22, 230.49 -34.98, 290.68 -61.59 C350.86 -88.2, 349.54 -143.81, 361.47 -160.43 M-0.93 1.42 C47.28 -8.33, 229.95 -33.51, 290.17 -60.29 C350.4 -87.06, 348.36 -142.49, 360.44 -159.24" stroke="#000000" stroke-width="2" fill="none"/></g><g transform="translate(586.8483066971448 243.57578055893322) rotate(0 180.99065718702678 -80.1005949037179)"><path d="M358.58 -127.83 C359.09 -140.59, 359.64 -149.79, 358.6 -160.08 M359.46 -128.99 C361.08 -135.9, 359.63 -141.28, 360.57 -159.6" stroke="#000000" stroke-width="2" fill="none"/></g><g transform="translate(586.8483066971448 243.57578055893322) rotate(0 180.99065718702678 -80.1005949037179)"><path d="M339.43 -135.2 C346.7 -145.44, 353.95 -152.05, 358.6 -160.08 M340.3 -136.36 C345.97 -141.81, 348.62 -145.6, 360.57 -159.6" stroke="#000000" stroke-width="2" fill="none"/></g></g><mask/></svg>